<svg width="140" height="96" viewBox="0 0 140 96" fill="none" xmlns="http://www.w3.org/2000/svg">
<path d="M57.6925 5.02552L26.1867 7.26125C24.4209 7.38656 22.853 8.43626 22.0643 10.0211L17.8786 18.4324L4.71617 38.2392C4.24724 38.9449 3.96531 39.7581 3.89685 40.6026L2.92192 52.6296C2.85481 53.4575 2.99502 54.2891 3.32989 55.0493L15.7684 83.2846C16.5086 84.9648 18.1101 86.1042 19.9401 86.2526L35.1274 87.4837L56.0716 89.1815C57.2061 89.2734 58.338 88.9756 59.2803 88.3371L66.0382 83.758C66.9805 83.1195 68.1124 82.8216 69.2469 82.9136L71.3825 83.0867C72.763 83.1986 74.0352 83.8781 74.8959 84.9633L78.0553 88.9466C79.1198 90.2887 80.7973 90.9925 82.5007 90.8116L117.56 87.0885C118.463 86.9926 119.324 86.6524 120.048 86.1045L122.703 84.0965C123.426 83.5498 123.987 82.8168 124.326 81.976L131.436 64.317L136.218 47.7653C136.548 46.6249 136.461 45.4045 135.973 44.3224L128.338 27.3864L121.831 12.3958C121.096 10.7026 119.488 9.552 117.649 9.40286L81.7519 6.49301C80.4866 6.39045 79.2297 6.77297 78.2361 7.56301L74.817 10.2816C73.8234 11.0716 72.5665 11.4541 71.3013 11.3515L66.8574 10.9913C65.1919 10.8563 63.704 9.89829 62.8918 8.43804L62.416 7.58261C61.4718 5.88511 59.63 4.88803 57.6925 5.02552Z" fill="#E0FFC6"/>
<path d="M50.4392 60.7046L77.0889 27.7501L84.2654 28.3318L57.6156 61.2864L50.4392 60.7046ZM54.9255 44.9657C53.231 44.8283 51.7337 44.3223 50.4334 43.4477C49.1332 42.5732 48.1589 41.3906 47.5105 39.9C46.8649 38.3762 46.6242 36.6009 46.7885 34.5742C46.9528 32.5475 47.4749 30.8509 48.3549 29.4842C49.2348 28.1174 50.3869 27.1072 51.811 26.4535C53.2379 25.7665 54.7985 25.4917 56.4929 25.6291C58.2206 25.7691 59.7166 26.2917 60.981 27.1968C62.2812 28.0714 63.2555 29.254 63.9039 30.7446C64.5854 32.2379 64.8441 33.9979 64.6798 36.0245C64.5182 38.018 63.9795 39.7134 63.0636 41.1106C62.1809 42.5105 61.0275 43.5373 59.6034 44.1911C58.2124 44.8475 56.6532 45.1057 54.9255 44.9657ZM55.3591 40.2352C56.1897 40.3026 56.9018 39.9757 57.4953 39.2546C58.1221 38.5362 58.5068 37.2966 58.6496 35.5357C58.7923 33.7748 58.6123 32.4894 58.1094 31.6795C57.6397 30.8722 56.9896 30.4349 56.159 30.3676C55.3284 30.3003 54.5831 30.6244 53.9231 31.3401C53.2964 32.0585 52.9116 33.2981 52.7689 35.059C52.6261 36.8199 52.8062 38.1053 53.3091 38.9153C53.8451 39.7279 54.5285 40.1679 55.3591 40.2352ZM78.2116 63.4074C76.4839 63.2673 74.97 62.76 73.6697 61.8854C72.4027 61.0136 71.445 59.8323 70.7966 58.3417C70.151 56.8179 69.9103 55.0427 70.0746 53.016C70.2389 50.9893 70.761 49.2926 71.641 47.9259C72.5209 46.5592 73.6564 45.5476 75.0473 44.8912C76.4741 44.2042 78.0514 43.9308 79.779 44.0708C81.5067 44.2109 83.0027 44.7335 84.2671 45.6386C85.5673 46.5131 86.5416 47.6957 87.19 49.1863C87.8715 50.6796 88.1302 52.4396 87.9659 54.4663C87.8016 56.493 87.2615 58.2049 86.3456 59.6022C85.4657 60.9689 84.3136 61.9791 82.8895 62.6328C81.4985 63.2893 79.9393 63.5474 78.2116 63.4074ZM78.5954 58.6729C79.426 58.7403 80.1547 58.4147 80.7814 57.6964C81.4082 56.978 81.7929 55.7384 81.9357 53.9775C82.0784 52.2166 81.8983 50.9312 81.3955 50.1212C80.8926 49.3113 80.2259 48.8726 79.3953 48.8053C78.5979 48.7407 77.8692 49.0662 77.2092 49.7819C76.5825 50.5002 76.1977 51.7399 76.055 53.5008C75.9122 55.2616 76.0923 56.5471 76.5952 57.357C77.1312 58.1696 77.798 58.6083 78.5954 58.6729Z" fill="black"/>
</svg>
