<svg width="137" height="106" viewBox="0 0 137 106" fill="none" xmlns="http://www.w3.org/2000/svg">
<path d="M44.5953 19.6883L18.6693 30.9697C17.0461 31.6761 15.9173 33.1881 15.7016 34.9452L14.6881 43.2002L9.41416 64.121C9.20705 64.9425 9.21211 65.8032 9.42886 66.6223L12.1865 77.0432C12.399 77.8462 12.8082 78.5836 13.3772 79.1888L32.3949 99.4183C33.6525 100.756 35.5421 101.297 37.317 100.827L50.4974 97.3393L68.874 92.4763C69.9744 92.1851 70.9424 91.5272 71.6182 90.6113L75.8547 84.8698C76.5305 83.9539 77.4986 83.296 78.5989 83.0048L80.1536 82.5934C81.4926 82.239 82.9185 82.456 84.0914 83.1925L87.6516 85.4278C89.1024 86.3386 90.9184 86.4434 92.4643 85.7055L121.153 72.0103C121.973 71.619 122.67 71.0117 123.171 70.2538L124.71 67.924C125.21 67.1677 125.494 66.2898 125.533 65.3842L126.278 48.1605L125.372 32.6361C125.303 31.4511 124.814 30.3294 123.994 29.4716L112.395 17.3443L102.425 6.62331C101.168 5.27161 99.269 4.72233 97.4846 5.19453L66.1554 13.4851C64.9282 13.8099 63.8705 14.5892 63.1968 15.6651L61.267 18.7468C60.5933 19.8227 59.5356 20.602 58.3084 20.9268L54.7732 21.8623C53.1578 22.2898 51.4358 21.8821 50.1835 20.7758L49.9009 20.526C48.4452 19.2399 46.3764 18.9133 44.5953 19.6883Z" fill="#B0EA7E"/>
<path d="M57.1925 73.5887L71.3435 33.6392L78.3039 31.7973L64.153 71.7468L57.1925 73.5887ZM56.1801 57.2542C54.5367 57.6891 52.9563 57.7107 51.439 57.3192C49.9217 56.9277 48.6091 56.1372 47.5013 54.9477C46.3849 53.7259 45.5666 52.1322 45.0465 50.1666C44.5263 48.2009 44.4534 46.4272 44.8279 44.8454C45.2024 43.2636 45.9522 41.9274 47.0772 40.8366C48.1937 39.7136 49.5737 38.9346 51.2172 38.4997C52.8928 38.0563 54.4775 38.0507 55.9711 38.483C57.4884 38.8745 58.801 39.6651 59.9088 40.8546C61.0489 42.0355 61.879 43.6089 62.3992 45.5745C62.9108 47.508 62.9675 49.286 62.5694 50.9085C62.2034 52.5225 61.4579 53.8749 60.3328 54.9656C59.24 56.0479 57.8558 56.8107 56.1801 57.2542ZM55.0133 52.6494C55.8189 52.4363 56.3814 51.8909 56.7009 51.0133C57.0526 50.1271 57.0024 48.8301 56.5505 47.1223C56.0985 45.4144 55.5006 44.2624 54.7566 43.6662C54.0449 43.0614 53.2863 42.8657 52.4807 43.0789C51.675 43.2921 51.0803 43.846 50.6964 44.7406C50.3447 45.6267 50.3948 46.9237 50.8468 48.6316C51.2988 50.3395 51.8967 51.4915 52.6406 52.0877C53.4168 52.6754 54.2077 52.8626 55.0133 52.6494ZM84.2793 66.8863C82.6036 67.3297 81.0071 67.3557 79.4898 66.9641C78.0047 66.5641 76.7082 65.7693 75.6004 64.5798C74.484 63.3581 73.6658 61.7644 73.1456 59.7987C72.6254 57.833 72.5526 56.0593 72.9271 54.4775C73.3015 52.8958 74.0352 51.5637 75.128 50.4815C76.2446 49.3585 77.6407 48.5753 79.3163 48.1319C80.992 47.6884 82.5766 47.6829 84.0702 48.1151C85.5875 48.5067 86.9001 49.2972 88.008 50.4867C89.148 51.6677 89.9781 53.241 90.4983 55.2067C91.0185 57.1723 91.0795 58.9664 90.6813 60.589C90.3068 62.1707 89.5571 63.507 88.432 64.5978C87.3392 65.68 85.9549 66.4429 84.2793 66.8863ZM83.0641 62.2944C83.8697 62.0812 84.4483 61.5315 84.8 60.6454C85.1517 59.7593 85.1016 58.4623 84.6496 56.7544C84.1977 55.0465 83.5997 53.8945 82.8558 53.2983C82.1118 52.7021 81.3371 52.5106 80.5315 52.7238C79.7581 52.9285 79.1794 53.4781 78.7955 54.3728C78.4439 55.2589 78.494 56.5559 78.9459 58.2638C79.3979 59.9716 79.9958 61.1237 80.7398 61.7199C81.516 62.3075 82.2907 62.499 83.0641 62.2944Z" fill="black"/>
</svg>
