<svg width="140" height="141" viewBox="0 0 140 141" fill="none" xmlns="http://www.w3.org/2000/svg">
<path d="M87.2312 33.7296L64.9082 16.377C63.5105 15.2905 61.6425 15.0241 59.9969 15.6765L52.2653 18.7416L31.375 24.1348C30.5546 24.3466 29.8015 24.7634 29.1864 25.346L21.3603 32.759C20.7572 33.3302 20.306 34.0427 20.0473 34.8321L11.4012 61.2167C10.8295 62.9615 11.26 64.8792 12.5226 66.2122L21.8986 76.1107L34.9709 89.9115C35.7536 90.7379 36.7949 91.2724 37.9226 91.4268L44.992 92.3949C46.1197 92.5493 47.1609 93.0839 47.9437 93.9102L49.0496 95.0778C50.0021 96.0833 50.4948 97.4389 50.4103 98.8213L50.1537 103.017C50.0492 104.727 50.8273 106.371 52.2156 107.375L77.9809 125.996C78.7171 126.528 79.5843 126.85 80.4894 126.926L83.2717 127.161C84.175 127.237 85.0819 127.066 85.8956 126.667L101.371 119.069L114.564 110.836C115.571 110.208 116.321 109.241 116.681 108.11L121.769 92.1192L126.404 78.2322C126.988 76.4814 126.561 74.551 125.291 73.2109L103.005 49.6827C102.132 48.7611 100.941 48.206 99.6741 48.13L96.0445 47.9125C94.7774 47.8366 93.5866 47.2815 92.7136 46.3599L90.1988 43.7049C89.0497 42.4918 88.5826 40.7849 88.9538 39.1557L89.0376 38.7879C89.4691 36.8941 88.7647 34.9217 87.2312 33.7296Z" fill="#9CC677"/>
<path d="M45.9536 70.6093L87.7996 63.8919L92.751 69.1192L50.905 75.8366L45.9536 70.6093ZM59.8067 61.8952C58.6376 60.661 57.8615 59.2841 57.4782 57.7647C57.095 56.2453 57.1601 54.7144 57.6735 53.1721C58.2111 51.6069 59.218 50.1252 60.6942 48.7269C62.1704 47.3286 63.6924 46.4149 65.2603 45.9858C66.8281 45.5567 68.3602 45.5747 69.8567 46.0397C71.3773 46.4817 72.7222 47.3199 73.8913 48.5541C75.0832 49.8125 75.8473 51.2008 76.1834 52.719C76.5666 54.2384 76.5015 55.7693 75.9882 57.3116C75.4977 58.878 74.5143 60.3604 73.0381 61.7587C71.5861 63.1341 70.0526 64.0357 68.4377 64.4635C66.8456 64.9155 65.3014 64.909 63.8049 64.444C62.3314 64.0032 60.9987 63.1536 59.8067 61.8952ZM63.2896 58.665C63.8627 59.27 64.6109 59.5025 65.5343 59.3625C66.4806 59.2466 67.595 58.5813 68.8776 57.3664C70.1602 56.1515 70.885 55.0747 71.0519 54.1361C71.2418 53.2216 71.0502 52.4619 70.4771 51.8569C69.904 51.2519 69.1329 50.9952 68.1637 51.0868C67.2174 51.2026 66.1029 51.868 64.8203 53.0829C63.5377 54.2978 62.8129 55.3746 62.646 56.3132C62.502 57.2761 62.7165 58.06 63.2896 58.665ZM64.8133 91.1744C63.6213 89.916 62.8337 88.5271 62.4505 87.0076C62.0902 85.5124 62.1667 83.9936 62.6801 82.4513C63.2177 80.8861 64.2246 79.4044 65.7008 78.0061C67.1771 76.6078 68.6991 75.6941 70.2669 75.265C71.8348 74.836 73.3554 74.8418 74.829 75.2826C76.3496 75.7247 77.7059 76.5749 78.8979 77.8333C80.0899 79.0917 80.8539 80.48 81.1901 81.9982C81.5733 83.5176 81.5082 85.0485 80.9948 86.5908C80.5044 88.1573 79.521 89.6397 78.0448 91.038C76.5686 92.4362 75.023 93.3493 73.408 93.7771C71.8402 94.2062 70.308 94.1882 68.8116 93.7232C67.3381 93.2824 66.0053 92.4328 64.8133 91.1744ZM68.2619 87.9079C68.835 88.5129 69.5946 88.7575 70.5409 88.6417C71.4872 88.5259 72.6017 87.8605 73.8843 86.6456C75.1669 85.4307 75.8917 84.3539 76.0586 83.4153C76.2255 82.4767 76.0224 81.7048 75.4494 81.0998C74.8992 80.519 74.1395 80.2744 73.1703 80.3661C72.224 80.4819 71.1096 81.1472 69.827 82.3621C68.5443 83.5771 67.8196 84.6538 67.6527 85.5925C67.5087 86.5553 67.7117 87.3271 68.2619 87.9079Z" fill="black"/>
</svg>
