<svg width="139" height="110" viewBox="0 0 139 110" fill="none" xmlns="http://www.w3.org/2000/svg">
<path d="M66.5603 14.0413L38.5952 9.87287C36.8442 9.61188 35.0858 10.2962 33.9719 11.6721L28.7386 18.1363L13.1814 33.085C12.5705 33.672 12.1187 34.4047 11.8686 35.2142L8.68613 45.5133C8.44089 46.3069 8.39724 47.1491 8.55912 47.9639L13.9701 75.1967C14.3279 76.9975 15.6439 78.4574 17.398 78.9994L30.4245 83.0246L48.5863 88.6367C49.6738 88.9728 50.8434 88.9277 51.9018 88.509L58.5368 85.8841C59.5952 85.4654 60.7648 85.4203 61.8523 85.7564L63.3888 86.2312C64.7121 86.6401 65.8065 87.5796 66.4111 88.8256L68.2462 92.6077C68.994 94.1488 70.4787 95.1999 72.1807 95.3931L103.768 98.9782C104.671 99.0806 105.584 98.9353 106.41 98.5577L108.95 97.3972C109.774 97.0204 110.481 96.4267 110.994 95.6794L120.751 81.4664L128.207 67.8199C128.776 66.7782 128.956 65.568 128.715 64.4058L125.303 47.9752L122.528 33.6006C122.179 31.7883 120.859 30.3161 119.095 29.7711L88.1322 20.2034C86.9193 19.8286 85.6094 19.9292 84.468 20.4847L81.1986 22.0759C80.0571 22.6314 78.7472 22.732 77.5343 22.3572L74.0404 21.2776C72.4439 20.7843 71.1994 19.5261 70.7236 17.9243L70.6162 17.5628C70.063 15.7008 68.4815 14.3277 66.5603 14.0413Z" fill="#9CC677"/>
<path d="M48.6863 66.4289L81.854 40.045L88.7331 42.1707L55.5653 68.5546L48.6863 66.4289ZM56.4821 52.0391C54.8579 51.5372 53.506 50.7182 52.4266 49.5823C51.3472 48.4463 50.6529 47.0804 50.3435 45.4846C50.0441 43.857 50.1945 42.0718 50.7948 40.1291C51.3951 38.1864 52.273 36.6435 53.4287 35.5004C54.5844 34.3573 55.9282 33.6213 57.4603 33.2923C59.0023 32.9314 60.5853 33.0019 62.2096 33.5038C63.8656 34.0155 65.2125 34.8504 66.2502 36.0084C67.3297 37.1444 68.024 38.5102 68.3334 40.106C68.6745 41.7117 68.545 43.4858 67.9447 45.4285C67.3542 47.3394 66.4603 48.8773 65.2629 50.0425C64.0975 51.2174 62.7487 51.9694 61.2166 52.2984C59.7163 52.6372 58.1382 52.5508 56.4821 52.0391ZM57.9322 47.5156C58.7284 47.7616 59.4944 47.5971 60.2303 47.022C60.9981 46.4568 61.6428 45.3303 62.1643 43.6424C62.6859 41.9545 62.7892 40.6606 62.4741 39.7608C62.1909 38.8709 61.6512 38.3029 60.855 38.0568C60.0588 37.8108 59.2609 37.9655 58.4613 38.5208C57.6936 39.086 57.0489 40.2126 56.5273 41.9005C56.0057 43.5884 55.9025 44.8823 56.2176 45.7821C56.5645 46.6917 57.136 47.2695 57.9322 47.5156ZM75.2098 75.0958C73.5537 74.5841 72.186 73.7602 71.1066 72.6242C70.059 71.4981 69.3806 70.1371 69.0713 68.5414C68.7718 66.9137 68.9222 65.1286 69.5225 63.1859C70.1228 61.2432 71.0008 59.7003 72.1564 58.5572C73.3121 57.4141 74.64 56.6731 76.1403 56.3342C77.6822 55.9734 79.2812 56.0488 80.9373 56.5605C82.5934 57.0723 83.9402 57.9071 84.978 59.0651C86.0574 60.2011 86.7517 61.567 87.0611 63.1628C87.4022 64.7684 87.2727 66.5425 86.6724 68.4852C86.0721 70.4279 85.1732 71.9819 83.9759 73.147C82.8202 74.2901 81.4764 75.0261 79.9443 75.3551C78.444 75.694 76.8659 75.6075 75.2098 75.0958ZM76.6121 70.5575C77.4083 70.8036 78.1903 70.644 78.9581 70.0788C79.7258 69.5136 80.3705 68.387 80.892 66.6991C81.4136 65.0112 81.5169 63.7173 81.2018 62.8175C80.8867 61.9177 80.3311 61.3448 79.5349 61.0988C78.7706 60.8626 77.9886 61.0222 77.189 61.5776C76.4213 62.1428 75.7766 63.2693 75.255 64.9572C74.7335 66.6452 74.6302 67.939 74.9453 68.8388C75.2922 69.7484 75.8478 70.3213 76.6121 70.5575Z" fill="black"/>
</svg>
